<svg xmlns="http://www.w3.org/2000/svg" width="246.99" height="35" viewBox="0 0 246.99 35"><rect class="svg__rect" x="0" y="0" width="118.03" height="35" fill="#C1D72F" data-darkreader-inline-fill="" style="--darkreader-inline-fill:#0a85ac;"/><rect class="svg__rect" x="116.03" y="0" width="130.96" height="35" fill="#5D9741" data-darkreader-inline-fill="" style="--darkreader-inline-fill:#2272a2;"/><path class="svg__text" d="M13.95 18.19L13.95 18.19L13.95 17.39Q13.95 16.19 14.38 15.27Q14.80 14.35 15.60 13.85Q16.40 13.35 17.45 13.35L17.45 13.35Q18.86 13.35 19.73 14.12Q20.59 14.89 20.73 16.29L20.73 16.29L19.25 16.29Q19.14 15.37 18.71 14.96Q18.28 14.55 17.45 14.55L17.45 14.55Q16.48 14.55 15.97 15.26Q15.45 15.96 15.44 17.33L15.44 17.33L15.44 18.09Q15.44 19.47 15.93 20.20Q16.43 20.92 17.38 20.92L17.38 20.92Q18.25 20.92 18.69 20.53Q19.13 20.14 19.25 19.22L19.25 19.22L20.73 19.22Q20.60 20.59 19.72 21.35Q18.84 22.12 17.38 22.12L17.38 22.12Q16.36 22.12 15.59 21.63Q14.81 21.15 14.39 20.26Q13.97 19.37 13.95 18.19ZM26.52 22L25.04 22L25.04 13.47L26.52 13.47L26.52 17.02L30.34 17.02L30.34 13.47L31.81 13.47L31.81 22L30.34 22L30.34 18.21L26.52 18.21L26.52 22ZM42.13 22L36.55 22L36.55 13.47L42.09 13.47L42.09 14.66L38.04 14.66L38.04 17.02L41.54 17.02L41.54 18.19L38.04 18.19L38.04 20.82L42.13 20.82L42.13 22ZM45.89 19.42L45.89 19.42L47.38 19.42Q47.38 20.15 47.86 20.55Q48.34 20.95 49.23 20.95L49.23 20.95Q50.01 20.95 50.40 20.63Q50.79 20.32 50.79 19.80L50.79 19.80Q50.79 19.24 50.39 18.94Q49.99 18.63 48.96 18.32Q47.93 18.01 47.32 17.63L47.32 17.63Q46.16 16.90 46.16 15.72L46.16 15.72Q46.16 14.69 47.00 14.02Q47.84 13.35 49.18 13.35L49.18 13.35Q50.07 13.35 50.77 13.68Q51.47 14.01 51.86 14.61Q52.26 15.22 52.26 15.96L52.26 15.96L50.79 15.96Q50.79 15.29 50.37 14.91Q49.95 14.54 49.17 14.54L49.17 14.54Q48.44 14.54 48.04 14.85Q47.64 15.16 47.64 15.71L47.64 15.71Q47.64 16.18 48.07 16.50Q48.51 16.81 49.50 17.10Q50.50 17.40 51.10 17.78Q51.71 18.16 51.99 18.65Q52.27 19.13 52.27 19.79L52.27 19.79Q52.27 20.86 51.45 21.49Q50.63 22.12 49.23 22.12L49.23 22.12Q48.31 22.12 47.53 21.77Q46.75 21.43 46.32 20.83Q45.89 20.22 45.89 19.42ZM56.12 19.42L56.12 19.42L57.61 19.42Q57.61 20.15 58.09 20.55Q58.57 20.95 59.46 20.95L59.46 20.95Q60.24 20.95 60.63 20.63Q61.02 20.32 61.02 19.80L61.02 19.80Q61.02 19.24 60.62 18.94Q60.23 18.63 59.19 18.32Q58.16 18.01 57.55 17.63L57.55 17.63Q56.39 16.90 56.39 15.72L56.39 15.72Q56.39 14.69 57.23 14.02Q58.07 13.35 59.41 13.35L59.41 13.35Q60.30 13.35 61.00 13.68Q61.70 14.01 62.09 14.61Q62.49 15.22 62.49 15.96L62.49 15.96L61.02 15.96Q61.02 15.29 60.60 14.91Q60.18 14.54 59.40 14.54L59.40 14.54Q58.67 14.54 58.27 14.85Q57.87 15.16 57.87 15.71L57.87 15.71Q57.87 16.18 58.30 16.50Q58.74 16.81 59.73 17.10Q60.73 17.40 61.33 17.78Q61.94 18.16 62.22 18.65Q62.50 19.13 62.50 19.79L62.50 19.79Q62.50 20.86 61.68 21.49Q60.86 22.12 59.46 22.12L59.46 22.12Q58.54 22.12 57.76 21.77Q56.98 21.43 56.55 20.83Q56.12 20.22 56.12 19.42ZM66.93 21.85Q66.71 21.63 66.71 21.29Q66.71 20.95 66.93 20.73Q67.14 20.50 67.54 20.50L67.54 20.50Q67.94 20.50 68.15 20.73Q68.37 20.95 68.37 21.29L68.37 21.29Q68.37 21.63 68.15 21.84Q67.94 22.06 67.54 22.06L67.54 22.06Q67.16 22.06 66.93 21.85ZM72.86 18.19L72.86 18.19L72.86 17.39Q72.86 16.19 73.29 15.27Q73.71 14.35 74.51 13.85Q75.31 13.35 76.36 13.35L76.36 13.35Q77.77 13.35 78.64 14.12Q79.50 14.89 79.64 16.29L79.64 16.29L78.16 16.29Q78.06 15.37 77.62 14.96Q77.19 14.55 76.36 14.55L76.36 14.55Q75.39 14.55 74.88 15.26Q74.36 15.96 74.35 17.33L74.35 17.33L74.35 18.09Q74.35 19.47 74.84 20.20Q75.34 20.92 76.29 20.92L76.29 20.92Q77.16 20.92 77.60 20.53Q78.04 20.14 78.16 19.22L78.16 19.22L79.64 19.22Q79.51 20.59 78.63 21.35Q77.75 22.12 76.29 22.12L76.29 22.12Q75.27 22.12 74.50 21.63Q73.72 21.15 73.30 20.26Q72.88 19.37 72.86 18.19ZM83.68 18.00L83.68 18.00L83.68 17.52Q83.68 16.28 84.12 15.32Q84.56 14.37 85.37 13.86Q86.18 13.35 87.22 13.35Q88.26 13.35 89.07 13.85Q89.87 14.35 90.31 15.29Q90.75 16.23 90.76 17.48L90.76 17.48L90.76 17.96Q90.76 19.21 90.32 20.16Q89.89 21.10 89.09 21.61Q88.28 22.12 87.23 22.12L87.23 22.12Q86.19 22.12 85.38 21.61Q84.57 21.10 84.13 20.17Q83.69 19.23 83.68 18.00ZM85.16 17.46L85.16 17.96Q85.16 19.36 85.71 20.13Q86.26 20.90 87.23 20.90L87.23 20.90Q88.22 20.90 88.75 20.15Q89.28 19.40 89.28 17.96L89.28 17.96L89.28 17.51Q89.28 16.09 88.74 15.34Q88.20 14.58 87.22 14.58L87.22 14.58Q86.26 14.58 85.72 15.33Q85.17 16.09 85.16 17.46L85.16 17.46ZM96.70 22L95.22 22L95.22 13.47L97.14 13.47L99.61 20.01L102.06 13.47L103.98 13.47L103.98 22L102.50 22L102.50 19.19L102.65 15.43L100.13 22L99.07 22L96.55 15.43L96.70 19.19L96.70 22Z" fill="#FFFFFF" data-darkreader-inline-fill="" style="--darkreader-inline-fill:#181a1b;"/><path class="svg__text" d="M132.60 22L130.22 22L130.22 13.60L134.06 13.60Q135.20 13.60 136.04 13.98Q136.88 14.35 137.34 15.06Q137.79 15.76 137.79 16.71L137.79 16.71Q137.79 17.62 137.37 18.30Q136.94 18.98 136.15 19.36L136.15 19.36L137.96 22L135.42 22L133.89 19.77L132.60 19.77L132.60 22ZM132.60 15.47L132.60 17.93L133.92 17.93Q134.65 17.93 135.02 17.61Q135.39 17.29 135.39 16.71L135.39 16.71Q135.39 16.12 135.02 15.79Q134.65 15.47 133.92 15.47L133.92 15.47L132.60 15.47ZM144.71 18.95L141.50 13.60L144.01 13.60L146.00 16.94L148.00 13.60L150.30 13.60L147.08 18.99L147.08 22L144.71 22L144.71 18.95ZM154.31 18.26L154.31 18.26L154.31 13.60L156.69 13.60L156.69 18.19Q156.69 20.20 158.28 20.20L158.28 20.20Q159.87 20.20 159.87 18.19L159.87 18.19L159.87 13.60L162.21 13.60L162.21 18.26Q162.21 20.13 161.17 21.15Q160.13 22.17 158.26 22.17L158.26 22.17Q156.39 22.17 155.35 21.15Q154.31 20.13 154.31 18.26ZM168.71 22L166.29 22L170.00 13.60L172.34 13.60L176.06 22L173.59 22L172.93 20.37L169.38 20.37L168.71 22ZM171.15 15.93L170.07 18.61L172.23 18.61L171.15 15.93ZM179.78 17.80L179.78 17.80Q179.78 16.54 180.38 15.54Q180.98 14.55 182.03 13.99Q183.08 13.43 184.40 13.43L184.40 13.43Q185.55 13.43 186.48 13.84Q187.40 14.25 188.01 15.02L188.01 15.02L186.50 16.39Q185.69 15.40 184.52 15.40L184.52 15.40Q183.84 15.40 183.30 15.70Q182.77 16 182.47 16.54Q182.18 17.09 182.18 17.80L182.18 17.80Q182.18 18.51 182.47 19.05Q182.77 19.60 183.30 19.90Q183.84 20.20 184.52 20.20L184.52 20.20Q185.69 20.20 186.50 19.22L186.50 19.22L188.01 20.58Q187.41 21.35 186.48 21.76Q185.55 22.17 184.40 22.17L184.40 22.17Q183.08 22.17 182.03 21.61Q180.98 21.05 180.38 20.05Q179.78 19.06 179.78 17.80ZM194.93 22L192.55 22L192.55 13.60L194.93 13.60L194.93 16.76L198.17 16.76L198.17 13.60L200.54 13.60L200.54 22L198.17 22L198.17 18.72L194.93 18.72L194.93 22ZM212.45 22L205.70 22L205.70 13.60L212.30 13.60L212.30 15.44L208.06 15.44L208.06 16.85L211.79 16.85L211.79 18.63L208.06 18.63L208.06 20.17L212.45 20.17L212.45 22ZM216.67 21.24L216.67 21.24L217.45 19.49Q218.01 19.86 218.75 20.09Q219.50 20.32 220.22 20.32L220.22 20.32Q221.58 20.32 221.59 19.64L221.59 19.64Q221.59 19.28 221.20 19.11Q220.81 18.93 219.94 18.74L219.94 18.74Q218.99 18.53 218.36 18.30Q217.72 18.06 217.27 17.55Q216.81 17.03 216.81 16.16L216.81 16.16Q216.81 15.39 217.23 14.77Q217.65 14.15 218.49 13.79Q219.32 13.43 220.53 13.43L220.53 13.43Q221.35 13.43 222.16 13.62Q222.97 13.80 223.58 14.17L223.58 14.17L222.85 15.93Q221.65 15.28 220.52 15.28L220.52 15.28Q219.81 15.28 219.49 15.49Q219.16 15.70 219.16 16.04L219.16 16.04Q219.16 16.37 219.55 16.54Q219.93 16.71 220.78 16.89L220.78 16.89Q221.74 17.10 222.37 17.33Q223.00 17.56 223.46 18.07Q223.93 18.58 223.93 19.46L223.93 19.46Q223.93 20.21 223.51 20.83Q223.09 21.44 222.25 21.80Q221.41 22.17 220.21 22.17L220.21 22.17Q219.19 22.17 218.23 21.92Q217.26 21.67 216.67 21.24ZM227.92 21.24L227.92 21.24L228.70 19.49Q229.26 19.86 230.00 20.09Q230.75 20.32 231.47 20.32L231.47 20.32Q232.83 20.32 232.84 19.64L232.84 19.64Q232.84 19.28 232.45 19.11Q232.06 18.93 231.19 18.74L231.19 18.74Q230.24 18.53 229.61 18.30Q228.97 18.06 228.52 17.55Q228.06 17.03 228.06 16.16L228.06 16.16Q228.06 15.39 228.48 14.77Q228.90 14.15 229.74 13.79Q230.57 13.43 231.78 13.43L231.78 13.43Q232.60 13.43 233.41 13.62Q234.22 13.80 234.83 14.17L234.83 14.17L234.10 15.93Q232.90 15.28 231.77 15.28L231.77 15.28Q231.06 15.28 230.74 15.49Q230.41 15.70 230.41 16.04L230.41 16.04Q230.41 16.37 230.80 16.54Q231.18 16.71 232.03 16.89L232.03 16.89Q232.99 17.10 233.62 17.33Q234.25 17.56 234.71 18.07Q235.18 18.58 235.18 19.46L235.18 19.46Q235.18 20.21 234.76 20.83Q234.34 21.44 233.50 21.80Q232.66 22.17 231.46 22.17L231.46 22.17Q230.44 22.17 229.48 21.92Q228.51 21.67 227.92 21.24Z" fill="#FFFFFF" x="129.03" data-darkreader-inline-fill="" style="--darkreader-inline-fill:#181a1b;"/></svg>