<svg xmlns="http://www.w3.org/2000/svg" width="220.51" height="35" viewBox="0 0 220.51 35"><rect class="svg__rect" x="0" y="0" width="94.37" height="35" fill="#3BC4F3" data-darkreader-inline-fill="" style="--darkreader-inline-fill:#0a85ac;"/><rect class="svg__rect" x="92.37" y="0" width="128.14" height="35" fill="#3C9AD5" data-darkreader-inline-fill="" style="--darkreader-inline-fill:#2272a2;"/><path class="svg__text" d="M16.67 22L14.22 22L14.22 13.47L16.74 13.47Q17.87 13.47 18.74 13.97Q19.62 14.48 20.10 15.40Q20.58 16.33 20.58 17.52L20.58 17.52L20.58 17.95Q20.58 19.16 20.10 20.08Q19.61 21.00 18.72 21.50Q17.83 22 16.67 22L16.67 22ZM15.70 14.66L15.70 20.82L16.67 20.82Q17.83 20.82 18.46 20.09Q19.08 19.36 19.09 17.99L19.09 17.99L19.09 17.52Q19.09 16.13 18.49 15.40Q17.89 14.66 16.74 14.66L16.74 14.66L15.70 14.66ZM26.61 22L25.13 22L25.13 13.47L26.61 13.47L26.61 22ZM30.99 19.42L30.99 19.42L32.47 19.42Q32.47 20.15 32.95 20.55Q33.43 20.95 34.33 20.95L34.33 20.95Q35.10 20.95 35.49 20.63Q35.88 20.32 35.88 19.80L35.88 19.80Q35.88 19.24 35.48 18.94Q35.09 18.63 34.06 18.32Q33.03 18.01 32.42 17.63L32.42 17.63Q31.25 16.90 31.25 15.72L31.25 15.72Q31.25 14.69 32.09 14.02Q32.93 13.35 34.27 13.35L34.27 13.35Q35.16 13.35 35.86 13.68Q36.56 14.01 36.96 14.61Q37.36 15.22 37.36 15.96L37.36 15.96L35.88 15.96Q35.88 15.29 35.46 14.91Q35.04 14.54 34.26 14.54L34.26 14.54Q33.54 14.54 33.13 14.85Q32.73 15.16 32.73 15.71L32.73 15.71Q32.73 16.18 33.17 16.50Q33.60 16.81 34.60 17.10Q35.59 17.40 36.20 17.78Q36.80 18.16 37.08 18.65Q37.36 19.13 37.36 19.79L37.36 19.79Q37.36 20.86 36.54 21.49Q35.73 22.12 34.33 22.12L34.33 22.12Q33.40 22.12 32.62 21.77Q31.85 21.43 31.42 20.83Q30.99 20.22 30.99 19.42ZM41.38 18.19L41.38 18.19L41.38 17.39Q41.38 16.19 41.81 15.27Q42.24 14.35 43.04 13.85Q43.84 13.35 44.89 13.35L44.89 13.35Q46.30 13.35 47.16 14.12Q48.02 14.89 48.16 16.29L48.16 16.29L46.68 16.29Q46.58 15.37 46.15 14.96Q45.72 14.55 44.89 14.55L44.89 14.55Q43.92 14.55 43.40 15.26Q42.88 15.96 42.87 17.33L42.87 17.33L42.87 18.09Q42.87 19.47 43.36 20.20Q43.86 20.92 44.81 20.92L44.81 20.92Q45.69 20.92 46.13 20.53Q46.57 20.14 46.68 19.22L46.68 19.22L48.16 19.22Q48.03 20.59 47.15 21.35Q46.27 22.12 44.81 22.12L44.81 22.12Q43.80 22.12 43.02 21.63Q42.24 21.15 41.82 20.26Q41.40 19.37 41.38 18.19ZM52.20 18.00L52.20 18.00L52.20 17.52Q52.20 16.28 52.65 15.32Q53.09 14.37 53.89 13.86Q54.70 13.35 55.74 13.35Q56.79 13.35 57.59 13.85Q58.40 14.35 58.84 15.29Q59.28 16.23 59.28 17.48L59.28 17.48L59.28 17.96Q59.28 19.21 58.85 20.16Q58.41 21.10 57.61 21.61Q56.80 22.12 55.75 22.12L55.75 22.12Q54.72 22.12 53.91 21.61Q53.09 21.10 52.65 20.17Q52.21 19.23 52.20 18.00ZM53.69 17.46L53.69 17.96Q53.69 19.36 54.23 20.13Q54.78 20.90 55.75 20.90L55.75 20.90Q56.74 20.90 57.27 20.15Q57.80 19.40 57.80 17.96L57.80 17.96L57.80 17.51Q57.80 16.09 57.26 15.34Q56.73 14.58 55.74 14.58L55.74 14.58Q54.78 14.58 54.24 15.33Q53.70 16.09 53.69 17.46L53.69 17.46ZM65.23 22L63.75 22L63.75 13.47L66.75 13.47Q68.22 13.47 69.03 14.13Q69.83 14.79 69.83 16.05L69.83 16.05Q69.83 16.90 69.42 17.48Q69.00 18.06 68.26 18.37L68.26 18.37L70.18 21.92L70.18 22L68.59 22L66.88 18.71L65.23 18.71L65.23 22ZM65.23 14.66L65.23 17.52L66.75 17.52Q67.50 17.52 67.92 17.15Q68.35 16.77 68.35 16.11L68.35 16.11Q68.35 15.43 67.96 15.05Q67.57 14.68 66.79 14.66L66.79 14.66L65.23 14.66ZM76.68 22L74.22 22L74.22 13.47L76.74 13.47Q77.87 13.47 78.75 13.97Q79.63 14.48 80.11 15.40Q80.59 16.33 80.59 17.52L80.59 17.52L80.59 17.95Q80.59 19.16 80.10 20.08Q79.62 21.00 78.73 21.50Q77.83 22 76.68 22L76.68 22ZM75.71 14.66L75.71 20.82L76.67 20.82Q77.84 20.82 78.46 20.09Q79.09 19.36 79.10 17.99L79.10 17.99L79.10 17.52Q79.10 16.13 78.49 15.40Q77.89 14.66 76.74 14.66L76.74 14.66L75.71 14.66Z" fill="#FFFFFF" data-darkreader-inline-fill="" style="--darkreader-inline-fill:#181a1b;"/><path class="svg__text" d="M108.94 22L106.56 22L106.56 13.60L110.40 13.60Q111.54 13.60 112.38 13.98Q113.22 14.35 113.68 15.06Q114.13 15.76 114.13 16.71L114.13 16.71Q114.13 17.62 113.71 18.30Q113.28 18.98 112.49 19.36L112.49 19.36L114.30 22L111.76 22L110.23 19.77L108.94 19.77L108.94 22ZM108.94 15.47L108.94 17.93L110.26 17.93Q110.99 17.93 111.36 17.61Q111.73 17.29 111.73 16.71L111.73 16.71Q111.73 16.12 111.36 15.79Q110.99 15.47 110.26 15.47L110.26 15.47L108.94 15.47ZM121.05 18.95L117.84 13.60L120.35 13.60L122.34 16.94L124.34 13.60L126.64 13.60L123.42 18.99L123.42 22L121.05 22L121.05 18.95ZM130.65 18.26L130.65 18.26L130.65 13.60L133.03 13.60L133.03 18.19Q133.03 20.20 134.62 20.20L134.62 20.20Q136.21 20.20 136.21 18.19L136.21 18.19L136.21 13.60L138.55 13.60L138.55 18.26Q138.55 20.13 137.51 21.15Q136.47 22.17 134.60 22.17L134.60 22.17Q132.73 22.17 131.69 21.15Q130.65 20.13 130.65 18.26ZM145.05 22L142.63 22L146.34 13.60L148.68 13.60L152.40 22L149.93 22L149.27 20.37L145.72 20.37L145.05 22ZM147.49 15.93L146.41 18.61L148.57 18.61L147.49 15.93ZM157.43 20.21L155.92 20.21L155.92 18.67L157.62 18.67L157.82 16.94L156.31 16.94L156.31 15.39L158.01 15.39L158.24 13.60L159.88 13.60L159.65 15.39L161.13 15.39L161.35 13.60L162.98 13.60L162.76 15.39L164.27 15.39L164.27 16.94L162.56 16.94L162.36 18.67L163.86 18.67L163.86 20.21L162.17 20.21L161.94 22L160.31 22L160.53 20.21L159.06 20.21L158.83 22L157.20 22L157.43 20.21ZM159.46 16.94L159.25 18.67L160.73 18.67L160.93 16.94L159.46 16.94ZM169.65 16.17L167.89 15.19Q168.38 14.37 169.27 13.90Q170.16 13.43 171.37 13.43L171.37 13.43Q172.33 13.43 173.06 13.74Q173.80 14.05 174.22 14.64Q174.63 15.22 174.63 15.99L174.63 15.99Q174.63 16.67 174.34 17.28Q174.04 17.89 173.20 18.65L173.20 18.65L171.62 20.11L174.86 20.11L174.86 22L168.32 22L168.32 20.51L171.46 17.57Q171.92 17.14 172.07 16.83Q172.23 16.53 172.23 16.22L172.23 16.22Q172.23 15.81 171.95 15.58Q171.68 15.35 171.15 15.35L171.15 15.35Q170.68 15.35 170.29 15.56Q169.90 15.77 169.65 16.17L169.65 16.17ZM178.58 21.34L178.58 21.34L179.44 19.55Q179.93 19.88 180.55 20.07Q181.17 20.25 181.77 20.25L181.77 20.25Q182.38 20.25 182.74 20.02Q183.10 19.79 183.10 19.37L183.10 19.37Q183.10 18.55 181.82 18.55L181.82 18.55L180.83 18.55L180.83 17.05L182.33 15.44L179.01 15.44L179.01 13.60L185.09 13.60L185.09 15.09L183.34 16.96Q184.39 17.18 184.95 17.82Q185.51 18.46 185.51 19.37L185.51 19.37Q185.51 20.11 185.10 20.75Q184.70 21.39 183.88 21.78Q183.06 22.17 181.84 22.17L181.84 22.17Q180.95 22.17 180.08 21.95Q179.21 21.74 178.58 21.34ZM189.76 17.80L189.76 17.80Q189.76 16.45 190.23 15.46Q190.70 14.46 191.54 13.95Q192.38 13.43 193.46 13.43L193.46 13.43Q194.52 13.43 195.37 13.95Q196.21 14.46 196.68 15.46Q197.16 16.45 197.16 17.80L197.16 17.80Q197.16 19.15 196.68 20.15Q196.21 21.14 195.37 21.65Q194.53 22.17 193.46 22.17L193.46 22.17Q192.38 22.17 191.54 21.65Q190.70 21.14 190.23 20.15Q189.76 19.16 189.76 17.80ZM192.14 17.80L192.14 17.80Q192.14 19.06 192.49 19.64Q192.85 20.22 193.46 20.22L193.46 20.22Q194.06 20.22 194.42 19.64Q194.77 19.06 194.77 17.80L194.77 17.80Q194.77 16.54 194.42 15.96Q194.06 15.38 193.46 15.38L193.46 15.38Q192.85 15.38 192.49 15.96Q192.14 16.54 192.14 17.80ZM201.40 19.53L201.40 19.53Q201.40 18.89 201.72 18.40Q202.03 17.91 202.60 17.57L202.60 17.57Q202.17 17.27 201.94 16.84Q201.71 16.41 201.71 15.88L201.71 15.88Q201.71 15.15 202.13 14.59Q202.55 14.03 203.31 13.73Q204.07 13.43 205.05 13.43L205.05 13.43Q206.04 13.43 206.80 13.73Q207.56 14.03 207.98 14.59Q208.40 15.15 208.40 15.88L208.40 15.88Q208.40 16.41 208.17 16.84Q207.94 17.27 207.50 17.57L207.50 17.57Q208.08 17.91 208.39 18.40Q208.70 18.89 208.70 19.53L208.70 19.53Q208.70 20.32 208.25 20.92Q207.79 21.52 206.96 21.84Q206.13 22.17 205.05 22.17L205.05 22.17Q203.98 22.17 203.15 21.84Q202.32 21.52 201.86 20.92Q201.40 20.32 201.40 19.53ZM203.79 19.46L203.79 19.46Q203.79 19.94 204.14 20.22Q204.48 20.50 205.05 20.50L205.05 20.50Q205.63 20.50 205.97 20.22Q206.31 19.94 206.31 19.46L206.31 19.46Q206.31 18.98 205.97 18.70Q205.63 18.41 205.05 18.41L205.05 18.41Q204.48 18.41 204.14 18.70Q203.79 18.98 203.79 19.46ZM204.06 15.99L204.06 15.99Q204.06 16.40 204.33 16.63Q204.60 16.86 205.05 16.86L205.05 16.86Q205.51 16.86 205.79 16.63Q206.06 16.40 206.06 15.99L206.06 15.99Q206.06 15.57 205.79 15.33Q205.51 15.10 205.05 15.10L205.05 15.10Q204.61 15.10 204.33 15.33Q204.06 15.57 204.06 15.99Z" fill="#FFFFFF" x="105.37" data-darkreader-inline-fill="" style="--darkreader-inline-fill:#181a1b;"/></svg>